# xmcd CD database file
#
# Track frame offsets:
#	150
#	15645
#	26740
#
# Disc length: 503 seconds
#
# Revision: 0
# Processed by: cddbd v1.4PL0 Copyright (c) Steve Scherf et al.
# Submitted via: CDex 1.51
#
DISCID=1a01f503
DTITLE=Jools Holland - I'm gone - BeatRoute
DYEAR=1998
DGENRE=Blues
TTITLE0=I'm Gone
TTITLE1=BeatRoute (Wig Mix)
TTITLE2=BeatRoute (Glamour Mix)
EXTD=YEAR: 1998
EXTT0=
EXTT1=
EXTT2=
PLAYORDER=
